<?xml version="1.0" encoding="UTF-8" standalone="no"?><!DOCTYPE svg PUBLIC "-//W3C//DTD SVG 1.1//EN" "http://www.w3.org/Graphics/SVG/1.1/DTD/svg11.dtd"><svg width="100%" height="100%" viewBox="0 0 8334 8334" version="1.1" xmlns="http://www.w3.org/2000/svg" xmlns:xlink="http://www.w3.org/1999/xlink" xml:space="preserve" xmlns:serif="http://www.serif.com/" style="fill-rule:evenodd;clip-rule:evenodd;stroke-linecap:round;stroke-linejoin:round;stroke-miterlimit:1.5;"><g id="Core-2" serif:id="Core 2"><path d="M4226.44,4500.22c13.931,55.303 33.296,101.366 59.001,135.262c8.514,7.842 18.499,16.104 34.518,26.089l-0.401,9.232l29.3,-3.612l-0.803,-8.831c-12.71,-0.267 -21.674,-3.746 -26.892,-10.435c-53.864,-42.923 -83.137,-97.023 -89.907,-161.352l-8.027,4.817l3.211,8.83Z" style="fill:url(#_Linear1);stroke:#fff;stroke-opacity:0;stroke-width:4.17px;"/></g><g id="Core"><path d="M3790.61,2805.63c7.625,53.931 18.637,108.539 34.101,164.038l65.262,214.013l64.087,225.771l137.579,512.103c10.247,55.652 21.692,103.185 30.471,153.748c26.366,151.851 53.593,279.98 65.953,300.735c21.607,85.079 46.79,136.185 74.669,161.685l45.86,52.916c19.093,8.448 14.224,19.772 -5.88,32.925c-66.762,39.979 -87.173,86.221 -95.835,134.052c-5.521,25.594 -3.107,50.055 2.352,74.081l15.286,-9.407c-1.785,-15.449 -4.096,-34.898 -1.176,-72.318c3.945,-49.485 33.097,-91.621 88.781,-122.293c38.33,-22.179 18.154,-33.389 4.703,-45.86c-56.978,-58.717 -100.796,-124.521 -117.001,-205.193c-15.422,-53.809 -28.002,-79.684 -48.022,-244.734c-9.476,-78.121 -31.407,-149.075 -48.99,-220.333l-199.902,-736.11c-40.596,-128.48 -98.033,-295.464 -89.956,-376.874l-22.342,7.055Z" style="fill:url(#_Linear2);stroke:#fff;stroke-opacity:0;stroke-width:4.17px;"/><path d="M3738.26,2894.92l-18.463,2.809l49.369,86.696l116.799,185.033c45.323,91.997 83.919,186.555 109.976,288.185c35.143,91.814 56.918,186.369 71.043,279.354l19.252,58.032l-12.443,-75.056c-16.102,-91.951 -38.979,-181.844 -67.029,-273.736c-21.718,-82.953 -60.271,-185.802 -140.881,-338.356c-47.871,-67.707 -93.71,-136.664 -127.623,-212.961Z" style="fill:url(#_Linear3);stroke:#fff;stroke-opacity:0;stroke-width:4.17px;"/><path d="M3808.83,2906.21l-3.373,-15.622l-13.507,2.879l0.735,11.759c0.909,46.814 4.723,77.648 9.554,102.89c30.16,101.503 60.633,202.817 100.686,298.384c112.327,301.352 209.137,645.142 288.094,850.318c55.019,89.694 64.862,208.11 42.626,246.938l2.94,23.518l17.639,-44.831c7.962,-76.433 -4.777,-152.866 -47.771,-229.299c-11.177,-11.041 -48.608,-96.114 -91.46,-254.492c-45.868,-169.522 -130.939,-388.381 -198.839,-592.152c-42.22,-101.945 -74.397,-208.195 -102.891,-316.022c-7.636,2.864 -11.03,-81.737 -4.433,-84.268Z" style="fill:#40c2ff;stroke:#fff;stroke-opacity:0;stroke-width:4.17px;"/><path d="M3841.8,3126.58c-4.073,65.715 0.996,130.288 14.048,193.862c29.186,155.513 77.381,270.895 126.031,385.317c36.194,69.17 54.918,143.796 100.37,217.837c51.752,84.305 69.615,149.788 80.648,222.467l39.335,231.592c20.569,29.134 18.45,86.948 -5.218,149.31c-10.745,44.866 -9.859,88.39 7.225,130.044c8.154,23.686 19.941,44.95 37.728,62.213c47.532,30.726 88.74,41.879 123.248,42.537c96.131,1.835 141.286,-71 127.891,-132.797c-6.673,-30.787 -45.845,-64.889 -110.001,-92.738c-32.578,-8.192 -73.013,-14.268 -119.865,-17.688l14.45,17.661c36.966,2.446 72.972,2.467 99.465,10.667c94.875,29.364 129.718,91.327 96.487,143.013c-14.208,22.097 -34.294,35.773 -55.373,47.065c-36.273,19.432 -74.4,12.636 -118.056,1.316c-39.6,-10.269 -67.083,-39.252 -86.743,-85.262c-14.708,-39.916 -14.994,-82.235 -4.014,-126.432c24.84,-40.919 42.797,-93.699 13.246,-148.508c-20.013,-71.993 -43.117,-241.301 -91.112,-383.711c-50.192,-93.948 -97.245,-191.427 -138.874,-295.008c-44.851,-110.034 -99.078,-253.379 -126.834,-389.732c-9.238,-35.615 -14.844,-80.112 -14.449,-139.276l1.204,-16.055l-10.837,-27.694Z" style="fill:url(#_Linear4);stroke:#fff;stroke-opacity:0;stroke-width:4.17px;"/><path d="M3969.63,2899.56l19.402,1.764c14.484,-11.64 29.661,-26.931 41.161,-40.922c24.354,-29.631 4.825,-62.979 -58.119,-21.606c-16.924,11.125 -37.17,30.125 -63.002,56.648c-24.943,37.474 -40.738,77.561 -54.68,118.178l12.935,-2.94c14.237,-36.257 25.931,-72.513 56.443,-108.77c17.738,-17.926 31.163,-33.454 44.282,-42.709c52.121,-36.766 67.948,-18.131 48.337,-1.734c-48.347,40.424 -56.864,55.676 -27.357,43.855" style="fill:url(#_Linear5);stroke:#fff;stroke-opacity:0;stroke-width:4.17px;"/></g><g id="Outline"><path id="A" d="M4100.18,2897.55c-0.192,0.385 -10.624,12.268 -10.624,12.268l0.863,0.008l-0.603,0.816l25.206,0.367l1.104,-0.742l12.399,-0.195l-3.218,-11.833l-2.51,-0.328c-4.477,-0.178 -11.767,-0.741 -16.886,-0.805c-3.22,-0.04 -5.678,0.338 -5.731,0.444Z" style="fill:#f9c1ff;stroke:#fff;stroke-opacity:0;stroke-width:4.17px;"/><path id="_10" serif:id="10" d="M3434.91,2809.2l-31.749,11.759c-75.347,89.623 6.652,113.289 101.715,128.76c93.774,0.91 182.757,-16.391 268.692,-45.271c76.528,-34.722 120.463,-54.816 141.075,-76.576c72.623,-90.096 -75.281,-61.319 -101.683,16.605c4.581,-3.973 3.397,19.301 5.33,13.907c1.626,-4.534 16.818,-34.239 20.527,-37.131c76.311,-59.503 143.581,-35.648 -19.977,45.566c-41.829,19.155 -38.913,16.221 -79.373,31.749c-120.272,40.215 -173.694,35.676 -237.531,38.805c-97.708,-16.779 -160.996,-45.407 -67.026,-128.173Z" style="fill:url(#_Linear6);stroke:#fff;stroke-opacity:0;stroke-width:4.17px;"/><path id="_7" serif:id="7" d="M4006.6,3448.87c-91.615,96.957 -156.264,207.051 -198.962,327.84c-123.641,414.893 84.059,679.385 365.939,757.747c113.544,32.278 207.112,27.835 276.89,12.458c101.666,-22.404 156.706,-72.078 190.176,-122.051c90.698,-171.981 -104.384,-312.458 -440.255,-282.686c-164.991,24.047 -311.357,77.112 -433.2,168.388c-156.449,101.354 -271.837,262.028 -285.508,417.679c-17.431,105.654 8.273,190.045 62.087,260.578l7.526,-8.466c-45.88,-70.625 -68.041,-151.353 -59.735,-245.057c21.411,-154.934 111.793,-286.733 256.627,-402.533c133.616,-93.43 285.694,-153.57 456.436,-179.771c77.295,-0.242 146.666,-4.918 204.574,4.952c176.075,30.007 260.116,110.918 236.685,217.087c-4.2,19.028 -13.496,38.758 -24.603,59.233c-106.991,114.909 -259.662,140.503 -445.348,88.43c-160.093,-48.817 -269.771,-141.955 -330.921,-261.623c-70.492,-137.95 -76.496,-311.156 -20.907,-492.362c44.228,-109.784 104.718,-213.979 189.084,-309.966l-6.585,-9.877Z" style="fill:url(#_Linear7);stroke:#fff;stroke-opacity:0;stroke-width:4.17px;"/><path id="_6" serif:id="6" d="M3469.47,2778.96c255.181,-128.166 507.693,-164.294 751.585,-166.65c168.06,-1.624 333.516,19.519 494.065,76.294c88.197,31.189 175.035,76.375 261.014,127.825c314.867,274.771 305.16,581.56 168.99,900.493c-172.574,324.994 -426.403,604.855 -763.415,829.559c-168.338,116.395 -347.03,210.357 -530.072,294.893c-104.422,46.517 -208.845,86.079 -313.267,120.346c-164.325,52.14 -330.226,74.334 -497,79.924c-136.508,-1.411 -221.635,-32.328 -274.64,-64.857c-119.005,-73.035 -163.476,-219.326 -38.421,-398.399c74.98,-107.368 211.809,-218.983 404.565,-334.218c146.986,-87.872 401.648,-172.374 638.071,-208.05c116.583,-12.047 232.483,-17.955 347.106,-12.362l-0.919,-11.024c-111.867,-6.129 -229.083,-0.222 -348.791,11.292c-232.068,38.83 -414.263,88.828 -563.923,165.138c-574.581,292.974 -656.384,607.082 -501.243,764.306c72.114,73.083 199.122,106.564 339.113,104.711c170.299,-5.567 338.952,-28.418 504.35,-85.437c99.896,-29.062 198.366,-65.254 295.812,-106.566c203.875,-94.677 399.084,-199.596 576.006,-326.128c336.036,-238.535 586.922,-506.2 736.774,-808.429c132.34,-313.292 156.405,-615.819 -130.451,-887.436c-23.356,-22.115 -50.998,-42.789 -78.205,-60.806c-77.782,-51.512 -159.283,-93.252 -243.581,-116.949c-57.609,-16.194 -112.938,-32.49 -169.15,-42.654c-273.812,-49.507 -532.964,-36.316 -850.593,50.692c-87.455,23.957 -192.429,79.96 -266.144,122.865l52.364,-18.373Z" style="fill:url(#_Linear8);stroke:#fff;stroke-opacity:0;stroke-width:4.17px;"/><path id="_5" serif:id="5" d="M3952.94,2908.27c-33.833,13.594 -65.252,33.463 -96.227,48.14c-28.423,13.468 -56.472,21.868 -85.671,31.975c-202.224,69.994 -384.545,103.491 -508.383,68.516c-27.401,-7.739 -51.239,-20.926 -72.583,-35.451c-13.531,-17.8 -12.681,-37.811 -0.735,-59.53c62.07,-67.706 143.958,-118.723 243.264,-155.072c198.607,-71.191 410.88,-104.027 629.105,-118.324c185.146,-7.486 367.672,3.382 547.368,39.063c134.212,26.649 265.007,75.648 397.025,120.418c311.653,150.644 536.712,386.822 612.936,719.502c18.097,75.579 22.82,152.496 21.314,230.035c-21.68,278.428 -125.793,524.124 -280.746,749.635c-242.744,317.764 -568.625,576.408 -987.754,768.743c-176.323,75.288 -353.811,121.43 -532.094,147.722l-182.264,13.964c-376.901,-11.236 -601.524,-154.832 -604.852,-439.492c2.739,-45.831 7.059,-72.508 20.601,-114.706c8.541,-26.615 29.285,-71.79 42.833,-98.077c109.981,-213.387 332.662,-382.759 641.37,-497.9c161.567,-47.714 327.41,-62.282 496.816,-49.241c158.304,15.553 276.28,79.025 379.962,159.481c35.464,45.292 70.516,84.238 83.137,126.054c72.089,238.843 -84.456,424.545 -311.834,443.315c-65.794,5.432 -214.681,-37.869 -189.481,-146.781c7.287,-35.764 30.236,-64.351 68.349,-85.987l-4.41,-8.819c-44.596,20.613 -69.362,58.894 -78.638,110.975c-22.328,200.268 401.908,198.675 519.876,-55.104c30.318,-65.222 46.338,-147.953 11.237,-258.072c-13.959,-43.793 -48.602,-87.231 -91.621,-135.87c-106.197,-88.138 -235.433,-144.375 -391.721,-163.156c-165.361,-13.583 -330.721,1.334 -496.082,54.386c-87.628,37.193 -168.788,64.096 -245.558,106.98c-172.056,96.111 -305.93,219.539 -394.642,369.477c-42.121,71.194 -66.425,152.674 -73.423,242.31c1.278,68.138 5.04,132.926 30.855,182.964c106.108,205.671 334.155,285.705 657.78,269.022l174.915,-21.314c199.151,-28.603 381.941,-91.186 555.612,-172.71c450.226,-210.303 722.369,-478.527 927.489,-767.273c152.788,-202.487 244.076,-441.316 267.516,-720.237c4.191,-70.484 1.458,-149.489 -19.843,-251.348c-43.728,-169.929 -141.227,-500.193 -665.852,-740.815c-349.082,-137.388 -740.335,-189.665 -1197.21,-109.506c-127.236,20.161 -249.796,57.466 -371.143,99.217c-171.316,71.023 -261.814,144.312 -223.421,221.215c76.558,87.657 313.216,82.678 604.118,-24.988c79.601,-26.953 138.758,-60.721 194.758,-95.541l-22.048,2.205Z" style="fill:url(#_Linear9);stroke:#fff;stroke-opacity:0;stroke-width:4.17px;"/><path id="_4" serif:id="4" d="M3738.63,2898.17c-19.161,-78.586 22.119,-117.184 75.331,-138.719c58.109,-21.942 103.713,-33.168 139.681,-35.961c197.782,-15.358 185.088,145.066 -80.886,284.921c-366.285,191.253 -945.047,275.806 -855.282,73.493c106.263,-112.945 344.94,-197.571 697.899,-247.136c25.238,-3.544 51.059,-6.908 77.458,-10.091c490.364,-46.185 961.691,17.814 1390.87,266.414c244.249,156.772 377.992,347.372 468.522,551.202c94.649,291.156 71.145,565.654 -34.646,822.885c-199.755,485.703 -756.136,947.353 -1382.86,1049.36c-444.305,73.825 -782.048,-84.923 -854.067,-350.806c-67.614,-249.624 119.727,-583.985 581.223,-738.736c100.862,-22.585 196.173,-34.066 284.787,-32.153c160.558,15.88 265.958,64.829 322.738,126.673c57.424,62.544 80.823,136.645 63.392,199.453c-14.805,53.349 -44.567,108.955 -93.083,141.576c-96.92,65.167 -235.603,91.4 -312.384,-14.557c-23.713,-90.442 2.016,-139.774 61.596,-159.171l4.593,-7.349c8.956,-8.976 -132.098,26.311 -70.737,184.652c206.255,222.838 620.575,-122.731 334.395,-375.736c-102.332,-80.918 -228.693,-110.779 -370.223,-108.403c-273.996,14.058 -529.28,125.681 -705.539,353.688c-228.348,280.858 -131.606,580.619 120.559,719.687c160.367,88.443 389.771,121.832 643.774,75.881c408.012,-42.372 1028.31,-382.2 1328.6,-931.623c160.021,-292.783 228.464,-641.69 75.133,-995.746c-100.356,-216.25 -250.352,-399.407 -477.709,-530.991c-288.376,-174.469 -607.728,-257.4 -1005.02,-269.17c-149.437,-1.752 -298.874,4.716 -448.311,20.211c-315.44,39.18 -665.672,126.874 -732.18,297.649c-6.174,119.935 323.542,165.481 828.64,-60.632c116.967,-68.239 254.966,-114.042 293.056,-266.415c-9.213,-171.272 -465.872,-76.307 -383.085,109.322l13.78,-3.675Z" style="fill:url(#_Linear10);stroke:#fff;stroke-opacity:0;stroke-width:4.17px;"/><path d="M3722.02,2821.56c-2.222,4.296 -3.412,8.592 -4.285,12.888c6.754,0.067 13.509,-0.58 20.263,-2.758l4.545,-12.205c-6.73,0.024 -13.569,0.705 -20.523,2.075Z" style="fill:#25c1ff;stroke:#fff;stroke-opacity:0;stroke-width:4.17px;"/><path d="M4088.16,2801.64l-1.776,9.233l16.346,-0.046l2.93,-9.394l-17.5,0.207Z" style="fill:#25c1ff;stroke:#fff;stroke-opacity:0;stroke-width:4.17px;"/><path id="_1" serif:id="1" d="M3983.33,3708.33c-108.632,49.973 -225.926,86.008 -341.666,120.834c-172.683,51.72 -344.988,90.273 -516.667,95.833c-87.717,5.931 -169.782,6.996 -251.227,-9.56c-26.904,-5.469 -59.629,-13.386 -82.663,-25.627c-11.027,-5.859 -20.512,-12.709 -31.161,-18.494c-98.215,-53.36 -120.368,-147.168 44.218,-275.486c110.149,-71.902 223.678,-126.122 341.666,-166.666c191.471,-57.798 385.768,-88.844 570.834,-102.626l233.333,-9.874l-4.167,-8.334l-16.666,0l-262.204,10.504c-173.612,17.539 -351.685,47.365 -525.296,97.83c-3.745,2.003 -37.538,11.68 -81.894,28.34c-96.661,36.305 -258.315,132.247 -263.94,142.493c-0.956,1.742 -28.415,19.068 -54.517,45.797c-19.242,19.705 -36.863,42.279 -49.141,65.536c-9.493,17.981 -17.314,42.213 -18.698,51.167c-2.386,15.441 -2.798,26.654 -1.47,37.99c1.968,16.789 7.687,22.74 11.326,32.843c3.074,8.533 23.036,36.045 50.738,55.212c21.038,14.557 45.169,26.703 49.262,28.122c1.915,1.245 43.266,19.395 77.633,23.256c52.458,5.892 97.394,12.653 97.367,10.077c63.094,7.786 113.491,3.689 176.199,0.359c65.078,-3.456 138.287,-10.576 202.968,-21.192c149.92,-28.421 298.925,-64.157 445.833,-116.667c87.332,-31.334 170.375,-64.813 250,-100l-4.166,-12.5l-45.834,20.833Z" style="fill:url(#_Linear11);stroke:#fff;stroke-opacity:0;stroke-width:4.17px;"/><path id="_3" serif:id="3" d="M3959.14,3307.76l2.823,9.407c286.895,5.331 542.68,59.684 765.248,151.695c88.344,36.522 172.953,80.185 248.642,132.979c41.119,28.681 79.505,57.982 117.022,90.24c14.542,12.503 28.484,27.345 43.103,39.942c228.308,225.494 296.163,492.681 233.475,794.436c-40.98,136.714 -109.585,274.89 -215.7,395.846c-126.995,144.757 -303.836,265.024 -533.017,339.527c-58.947,19.162 -103.656,30.845 -171.102,36.831c-38.484,3.415 -77.814,5.267 -116.139,5.423c-57.309,0.234 -111.721,-7.411 -161.772,-19.208c-178.171,-41.992 -307.864,-134.559 -336.652,-305.375c-4.257,-25.261 -2.996,-57.365 -0.526,-88.052c0.642,-7.982 2.168,-15.265 3.243,-23.512c52.176,-165.988 172.567,-272.549 355.591,-324.547l-18.814,-7.526c-130.351,38.244 -229.06,105.258 -293.423,206.813c-20.448,32.263 -35.805,69.095 -49.713,108.195c-7.625,21.437 -9.383,37.467 -10.949,58.755c-2.627,35.702 -0.475,76.973 6.766,107.474c31.092,130.96 137.816,218.655 292.82,269.757c48.65,16.038 102.009,24.933 162.182,27.804c28.294,1.35 58.563,-0.273 89.697,-0.099c131.474,-1.084 258.31,-33.506 383.512,-87.272c164.237,-78.233 306.082,-175.597 414.478,-297.913c96.941,-109.389 166.541,-238.853 210.977,-390.538c6.356,-26.37 11.163,-54.304 15.032,-81.773c5.348,-37.973 8.998,-76.728 10.301,-114.788c2.363,-68.999 -8.069,-137.355 -21.82,-203.488c-29.383,-141.318 -100.556,-274.215 -229.633,-404.418c-233.633,-235.309 -609.529,-409.608 -1195.65,-426.615Z" style="fill:url(#_Linear12);stroke:#fff;stroke-opacity:0;stroke-width:4.17px;"/><path id="_2" serif:id="2" d="M4029.17,3687.5c-0,0 1.62,0.54 53.5,-24.632c61.959,-30.062 126.021,-63.838 185.149,-99.545c34.133,-20.613 66.457,-40.782 96.636,-63.258c28.447,-21.187 56.044,-41.271 83.364,-64.776c55.602,-47.836 92.788,-95.425 111.273,-132.216c73.285,-145.866 -149.349,-164.442 -388.16,12.587c-20.211,16.576 -39.847,33.312 -59.476,50.586c-33.765,29.713 -66.795,61.271 -99.528,92.223l-4.816,-8.128c20.624,-21.409 40.362,-41.194 61.248,-60.42c33.084,-30.455 67.234,-58.426 101.91,-87.687c40.967,-31.748 80.882,-54.241 125.602,-76.672c39.894,-20.011 77.639,-34.499 118.214,-41.757c24.08,-4.308 46.082,-6.362 75.697,-8.244c22.901,1.135 40.261,3.505 51.772,8.784c37.758,17.316 47.377,28.612 49.578,65.572c2.763,46.411 -66.443,140.25 -123.446,187.48c-19.916,16.501 -42.318,35.591 -68.821,55.175c-33.531,24.777 -70.999,48.318 -96.62,65.048c-63.737,41.62 -114.448,67.69 -183.753,102.84l-83.987,39.735l-5.336,-12.695Z" style="fill:url(#_Linear13);stroke:#fff;stroke-opacity:0;stroke-width:4.17px;"/><path id="_8" serif:id="8" d="M3820.72,2776.75c-128.66,59.519 -197.506,5.281 -12.23,-57.854c239.953,-56.74 325.351,-10.905 341.481,80.901c-21.569,95.118 -120.667,186.125 -274.69,274.219c-161.785,80.421 -302.113,131.899 -410.37,164.619c-98.612,29.805 -239.956,59.134 -342.745,60.643c-116.522,1.712 -221.684,-22.239 -218.141,-82.262c2.934,-49.706 79.931,-116.573 293.47,-195.21c172.349,-54.069 349.654,-86.662 531.035,-101.597c129.887,-9.865 258.284,-11.528 386.164,-10.348c528.716,19.252 830.606,152.225 1114.28,341.01c184.461,129.65 322.429,310.198 411.564,544.204c77.641,261.127 48.73,526.285 -59.265,794.436c-55.132,103.947 -114.201,198.593 -180.791,281.878c-87.377,109.286 -179.549,203.34 -279.906,280.724c-250.285,192.992 -604.28,338.087 -819.618,346.6c-195.671,23.348 -321.548,-9.93 -449.663,-41.391c-253.238,-109.516 -355.321,-269.641 -327.599,-473.228c77.1,-338.203 397.52,-512.07 691.615,-532.069c96.831,-2.568 193.662,13.695 290.493,80.149c49.452,48.786 76.51,92.223 79.222,130.049c3.856,53.77 -9.687,102.076 -41.371,135.109c-85.374,89.007 -220.503,118.021 -307.648,21.949l-6.021,8.654c102.91,122.253 303.656,59.65 363.125,-87.582c12.901,-31.941 10.009,-71.888 0.916,-115.148c-6.318,-30.058 -34.525,-61.756 -73.171,-100.18c-92.144,-75.123 -201.817,-87.342 -315.328,-85.794c-289.642,10.404 -640.828,217.531 -693.497,547.873c-24.974,225.41 86.936,390.447 349.194,489.173c188.573,53.387 399.15,70.098 666.78,-8.278c633.598,-188.585 933.531,-592.334 1062.52,-874.363c18.157,-39.701 32.517,-77.493 44.521,-112.261c103.971,-278.189 73.965,-562.95 3.01,-721.341c-73,-210.892 -217.994,-382.514 -412.41,-527.178c-225.693,-161.015 -579.227,-320.001 -1122.84,-335.271c-195.481,6.25 -337.786,-12.169 -649.847,48.165c-142.448,25.635 -257.022,57.551 -344.466,93.905c-404.671,168.237 -240.415,372.705 334.051,226.199c127.33,-32.472 272.498,-93.148 437.125,-175.234c172.66,-96.739 278.76,-193.879 284.848,-291.622c-2.934,-128.766 -201.111,-158.748 -421.064,-71.871c-145.656,77.039 -23.408,124.41 81.278,64.345l1.505,-14.675l-5.509,-0.047Z" style="fill:url(#_Linear14);stroke:#fff;stroke-opacity:0;stroke-width:4.17px;"/><path id="_9" serif:id="9" d="M4147.64,4014.9l1.764,12.347c203.421,14.93 400.794,81.88 588.536,231.651c84.431,91.297 135.794,167.891 155.562,233.619c21.151,70.327 23.985,137 17.463,198.285c-4.934,46.366 -17.854,91.668 -39.178,132.93c-63.919,123.686 -153.547,210.145 -244.785,248.371c-78.801,33.014 -154.65,54.097 -218.979,48.877c-167.948,-13.627 -304.725,-110.263 -189.829,-261.2c41.086,-38.23 85.911,-58.389 136.404,-51.151c43.182,19.158 45.996,44.927 31.161,68.79l16.463,-1.764c16.32,-32.114 7.785,-59.214 -32.338,-74.081c-56.247,-14.644 -112.493,-2.608 -168.74,56.442c-35.494,50.527 -41.433,95.616 -31.815,134.958c36.916,151.006 337.101,201.188 555.108,36.136c134.243,-101.634 223.6,-253.163 203.278,-453.784c-10.326,-101.935 -61.4,-208.272 -168.609,-311.137c-122.898,-115.92 -299.995,-219.832 -611.466,-249.289Z" style="fill:url(#_Linear15);stroke:#fff;stroke-opacity:0;stroke-width:4.17px;"/></g><g id="Dots"></g><defs><linearGradient id="_Linear1" x1="0" y1="0" x2="1" y2="0" gradientUnits="userSpaceOnUse" gradientTransform="matrix(77.8661,128.439,-188.35,114.187,4237.68,4523.29)"><stop offset="0" style="stop-color:#d1c1ff;stop-opacity:1"/><stop offset="1" style="stop-color:#a1c1ff;stop-opacity:1"/></linearGradient><linearGradient id="_Linear2" x1="0" y1="0" x2="1" y2="0" gradientUnits="userSpaceOnUse" gradientTransform="matrix(442.06,1857.35,-6945.56,1653.08,3804.63,2865.44)"><stop offset="0" style="stop-color:#11c1ff;stop-opacity:1"/><stop offset="0.5" style="stop-color:#cdc1ff;stop-opacity:1"/><stop offset="1" style="stop-color:#25c1ff;stop-opacity:1"/></linearGradient><linearGradient id="_Linear3" x1="0" y1="0" x2="1" y2="0" gradientUnits="userSpaceOnUse" gradientTransform="matrix(263.744,622.698,-1529.58,647.853,3781.73,2995.08)"><stop offset="0" style="stop-color:#f7c1ff;stop-opacity:1"/><stop offset="1" style="stop-color:#b5c0ff;stop-opacity:1"/></linearGradient><linearGradient id="_Linear4" x1="0" y1="0" x2="1" y2="0" gradientUnits="userSpaceOnUse" gradientTransform="matrix(367.907,830.448,-2073.25,918.497,4105.98,3848.19)"><stop offset="0" style="stop-color:#5fc1ff;stop-opacity:1"/><stop offset="0.82" style="stop-color:#dcbcf8;stop-opacity:1"/><stop offset="1" style="stop-color:#9ab1ea;stop-opacity:1"/></linearGradient><linearGradient id="_Linear5" x1="0" y1="0" x2="1" y2="0" gradientUnits="userSpaceOnUse" gradientTransform="matrix(72.4734,1.76384,-1.84211,75.6892,3919.07,2898.89)"><stop offset="0" style="stop-color:#85c1ff;stop-opacity:1"/><stop offset="1" style="stop-color:#c7c2ff;stop-opacity:1"/></linearGradient><linearGradient id="_Linear6" x1="0" y1="0" x2="1" y2="0" gradientUnits="userSpaceOnUse" gradientTransform="matrix(560.811,0,0,177.715,3373.69,2860.89)"><stop offset="0" style="stop-color:#d4c1ff;stop-opacity:1"/><stop offset="1" style="stop-color:#79c1ff;stop-opacity:1"/></linearGradient><linearGradient id="_Linear7" x1="0" y1="0" x2="1" y2="0" gradientUnits="userSpaceOnUse" gradientTransform="matrix(-142.974,667.47,-866.246,-185.553,3847.68,3820.51)"><stop offset="0" style="stop-color:#98c1ff;stop-opacity:1"/><stop offset="1" style="stop-color:#28c1ff;stop-opacity:1"/></linearGradient><linearGradient id="_Linear8" x1="0" y1="0" x2="1" y2="0" gradientUnits="userSpaceOnUse" gradientTransform="matrix(592.553,697.525,-656.869,558.015,3585.16,3541.84)"><stop offset="0" style="stop-color:#e6c1ff;stop-opacity:1"/><stop offset="1" style="stop-color:#25c1ff;stop-opacity:1"/></linearGradient><linearGradient id="_Linear9" x1="0" y1="0" x2="1" y2="0" gradientUnits="userSpaceOnUse" gradientTransform="matrix(379.713,2312.87,-2496.19,409.809,3689.84,2704.05)"><stop offset="0" style="stop-color:#f2c1ff;stop-opacity:1"/><stop offset="0.13" style="stop-color:#bdc1ff;stop-opacity:1"/><stop offset="1" style="stop-color:#67befb;stop-opacity:1"/></linearGradient><linearGradient id="_Linear10" x1="0" y1="0" x2="1" y2="0" gradientUnits="userSpaceOnUse" gradientTransform="matrix(254.07,2193.17,-2271.15,263.103,3778.15,3075.01)"><stop offset="0" style="stop-color:#25c1ff;stop-opacity:1"/><stop offset="0.33" style="stop-color:#9ec2ff;stop-opacity:1"/><stop offset="0.69" style="stop-color:#c2c2ff;stop-opacity:1"/><stop offset="0.88" style="stop-color:#a7c2ff;stop-opacity:1"/><stop offset="0.94" style="stop-color:#68c2ff;stop-opacity:1"/><stop offset="1" style="stop-color:#25c1ff;stop-opacity:1"/></linearGradient><linearGradient id="_Linear11" x1="0" y1="0" x2="1" y2="0" gradientUnits="userSpaceOnUse" gradientTransform="matrix(125,408.333,-189.953,58.149,3550,3341.67)"><stop offset="0" style="stop-color:#11c1ff;stop-opacity:1"/><stop offset="1" style="stop-color:#d9c1ff;stop-opacity:1"/></linearGradient><linearGradient id="_Linear12" x1="0" y1="0" x2="1" y2="0" gradientUnits="userSpaceOnUse" gradientTransform="matrix(32.8873,1169.08,-1478.64,41.5956,3984.81,3330.23)"><stop offset="0" style="stop-color:#17c1ff;stop-opacity:1"/><stop offset="0.65" style="stop-color:#27c1ff;stop-opacity:1"/><stop offset="1" style="stop-color:#87c1ff;stop-opacity:1"/></linearGradient><linearGradient id="_Linear13" x1="0" y1="0" x2="1" y2="0" gradientUnits="userSpaceOnUse" gradientTransform="matrix(584.101,0,0,524.634,4007.11,3437.88)"><stop offset="0" style="stop-color:#d9c1ff;stop-opacity:1"/><stop offset="1" style="stop-color:#9ac1ff;stop-opacity:1"/></linearGradient><linearGradient id="_Linear14" x1="0" y1="0" x2="1" y2="0" gradientUnits="userSpaceOnUse" gradientTransform="matrix(160.047,1674.79,-1690.38,161.537,4031.36,2954.74)"><stop offset="0" style="stop-color:#f9c1ff;stop-opacity:1"/><stop offset="0.28" style="stop-color:#0cbefb;stop-opacity:1"/><stop offset="0.47" style="stop-color:#7dc2ff;stop-opacity:1"/><stop offset="1" style="stop-color:#f0c1ff;stop-opacity:1"/></linearGradient><linearGradient id="_Linear15" x1="0" y1="0" x2="1" y2="0" gradientUnits="userSpaceOnUse" gradientTransform="matrix(261.895,1007.66,-1437.38,373.58,4164.86,4036.47)"><stop offset="0" style="stop-color:#5fc1ff;stop-opacity:1"/><stop offset="0.53" style="stop-color:#74c1ff;stop-opacity:1"/><stop offset="0.69" style="stop-color:#acc1ff;stop-opacity:1"/><stop offset="0.82" style="stop-color:#f0c1ff;stop-opacity:1"/><stop offset="1" style="stop-color:#87c1ff;stop-opacity:1"/></linearGradient></defs></svg>