<?xml version="1.0" encoding="UTF-8" standalone="no"?><!DOCTYPE svg PUBLIC "-//W3C//DTD SVG 1.1//EN" "http://www.w3.org/Graphics/SVG/1.1/DTD/svg11.dtd"><svg width="100%" height="100%" viewBox="0 0 8334 8334" version="1.1" xmlns="http://www.w3.org/2000/svg" xmlns:xlink="http://www.w3.org/1999/xlink" xml:space="preserve" xmlns:serif="http://www.serif.com/" style="fill-rule:evenodd;clip-rule:evenodd;stroke-linecap:round;stroke-linejoin:round;stroke-miterlimit:1.5;"><g id="Dots-Under" serif:id="Dots Under"><circle cx="3252.24" cy="749.957" r="47.743" style="fill:#ff037c;"/><circle cx="3247.59" cy="1524.65" r="41.533" style="fill:#ff037c;"/><circle cx="3626.39" cy="596.26" r="47.743" style="fill:#ff0104;"/><circle cx="3135.81" cy="1546.38" r="47.743" style="fill:#ff0104;"/><circle cx="2884.3" cy="1637.98" r="47.743" style="fill:#ff0104;"/><circle cx="2809.78" cy="1846.01" r="47.743" style="fill:#ff01c3;"/><circle cx="2643.67" cy="1881.72" r="47.743" style="fill:#ff0104;"/><circle cx="1629.89" cy="2139.43" r="47.743" style="fill:#ff00ae;"/><circle cx="1424.96" cy="2161.17" r="47.743" style="fill:#ff0104;"/><circle cx="1338.02" cy="1841.36" r="47.743" style="fill:#ff0104;"/><circle cx="3092.34" cy="2200.37" r="47.743" style="fill:#ff0104;"/><circle cx="3249.53" cy="2281.88" r="47.743" style="fill:#ff00ac;"/><circle cx="3334.91" cy="2312.93" r="65.208" style="fill:#ff00d3;"/><circle cx="3438.25" cy="2702.5" r="48.228" style="fill:#ff00d3;"/><circle cx="3632.31" cy="3020.76" r="48.228" style="fill:#ff00d3;"/><circle cx="3944.75" cy="3618.47" r="48.228" style="fill:#ff00d3;"/><circle cx="3853.54" cy="3608.77" r="48.228" style="fill:#ff00d3;"/><circle cx="3898.66" cy="3984.76" r="37.07" style="fill:#ff00d3;"/><circle cx="1968.34" cy="1814.96" r="47.743" style="fill:#ff01c3;"/><circle cx="2503.55" cy="1889.87" r="41.145" style="fill:#ff0104;"/><circle cx="3568.95" cy="2763.15" r="41.145" style="fill:#ff0104;"/><circle cx="3733.9" cy="3007.66" r="48.907" style="fill:#ff0104;"/><circle cx="3832.87" cy="3058.12" r="48.907" style="fill:#ff0104;"/><circle cx="4489.58" cy="2864.06" r="64.432" style="fill:#ff037c;"/><circle cx="3787.85" cy="2718.12" r="62.103" style="fill:#ff00ae;"/><circle cx="3693.15" cy="3277.41" r="48.907" style="fill:#ff0104;"/><circle cx="4027.91" cy="3852.8" r="40.175" style="fill:#ff0104;"/><circle cx="3203.15" cy="3406.46" r="40.175" style="fill:#ff0104;"/><circle cx="5512.47" cy="4487.38" r="47.937" style="fill:#ff0104;"/><circle cx="3934.76" cy="4039.1" r="40.175" style="fill:#ff0104;"/><circle cx="4072.54" cy="4209.87" r="40.175" style="fill:#ff0104;"/><circle cx="3544.69" cy="3998.73" r="40.175" style="fill:#ff0104;"/><circle cx="3524.51" cy="4040.65" r="40.175" style="fill:#ff00a2;"/><circle cx="3460.86" cy="4045.31" r="40.175" style="fill:#ff00ac;"/><circle cx="3164.33" cy="4014.26" r="40.175" style="fill:#ff00ac;"/><circle cx="3105.34" cy="4273.52" r="40.175" style="fill:#ff00fd;"/><circle cx="3106.89" cy="4425.67" r="54.923" style="fill:#ff012d;"/><circle cx="4132.7" cy="4227.34" r="40.175" style="fill:#ff0104;"/><circle cx="4225.85" cy="4528.13" r="40.175" style="fill:#ff0104;"/><circle cx="4136.58" cy="4526.19" r="40.175" style="fill:#ff0104;"/><circle cx="2698.59" cy="5077.33" r="40.175" style="fill:#ff0104;"/><circle cx="4336.46" cy="5081.21" r="40.175" style="fill:#ff0104;"/><circle cx="4373.34" cy="5007.46" r="40.175" style="fill:#ff0104;"/><circle cx="4793.62" cy="5109.8" r="40.175" style="fill:#ff0104;"/><circle cx="4549.93" cy="4995.82" r="40.175" style="fill:#ff0104;"/><circle cx="4637.26" cy="5013.29" r="40.175" style="fill:#ff037c;"/><circle cx="4579.04" cy="4953.13" r="40.175" style="fill:#ff037c;"/><circle cx="4732.35" cy="4825.05" r="40.175" style="fill:#ff037c;"/><circle cx="4225.85" cy="5189.88" r="40.175" style="fill:#ff0104;"/><circle cx="5343.64" cy="4757.12" r="40.175" style="fill:#ff0104;"/><circle cx="6031.21" cy="4137.12" r="40.175" style="fill:#ff0104;"/><circle cx="4315.12" cy="5207.35" r="40.175" style="fill:#ff0104;"/><circle cx="4351.99" cy="5372.3" r="40.175" style="fill:#ff0104;"/><circle cx="4584.86" cy="5997.18" r="40.175" style="fill:#ff0104;"/><circle cx="4555.75" cy="6035.99" r="40.175" style="fill:#ff0104;"/><circle cx="4564.97" cy="6114.1" r="37.749" style="fill:#ff0104;"/><circle cx="4605.72" cy="6150.97" r="37.749" style="fill:#ff0104;"/><circle cx="4321.31" cy="6106.26" r="46.443" style="fill:#ff0104;"/><circle cx="4617.85" cy="6346.49" r="53.759" style="fill:#ff0104;"/><circle cx="4373.34" cy="5459.63" r="40.175" style="fill:#ff0104;"/><circle cx="2380.33" cy="5609.05" r="47.937" style="fill:#ff0104;"/><circle cx="4126.88" cy="4398.11" r="40.175" style="fill:#ff0104;"/><circle cx="4216.15" cy="4324.37" r="40.175" style="fill:#ff00ae;"/><circle cx="4202.56" cy="4256.45" r="40.175" style="fill:#ff00d3;"/><circle cx="4280.19" cy="4662.03" r="40.175" style="fill:#ff00d3;"/><circle cx="4220.03" cy="4434.98" r="40.175" style="fill:#ff00d3;"/><circle cx="4390.8" cy="5112.26" r="40.175" style="fill:#ff00d3;"/><circle cx="5079.72" cy="5106.44" r="40.175" style="fill:#ff00d3;"/><circle cx="4839.08" cy="4372.88" r="40.175" style="fill:#ff00d3;"/><circle cx="5473.66" cy="4549.48" r="40.175" style="fill:#ff00d3;"/><circle cx="5023.44" cy="5253.92" r="40.175" style="fill:#ff00d3;"/><circle cx="4549.93" cy="5077.33" r="40.175" style="fill:#ff00d3;"/><circle cx="4251.08" cy="5284.97" r="40.175" style="fill:#ff00d3;"/><circle cx="4189.47" cy="4925.29" r="40.175" style="fill:#ff00d3;"/><circle cx="4109.99" cy="4853.75" r="40.175" style="fill:#ff00ae;"/><circle cx="4159.67" cy="4979.94" r="40.175" style="fill:#ff0104;"/><circle cx="4272.42" cy="5380.06" r="40.175" style="fill:#ff00d3;"/><circle cx="4365.57" cy="5502.32" r="40.175" style="fill:#ff00d3;"/><circle cx="4425.73" cy="5570.24" r="40.175" style="fill:#ff00d3;"/><circle cx="4386.92" cy="5564.42" r="40.175" style="fill:#ff00d3;"/><circle cx="4516.94" cy="5826.4" r="40.175" style="fill:#ff00d3;"/><circle cx="4482.01" cy="5762.36" r="40.175" style="fill:#ff00d3;"/><circle cx="4474.25" cy="5917.61" r="40.175" style="fill:#ff00d3;"/><circle cx="4310.3" cy="5941.21" r="40.175" style="fill:#ff00d3;"/><circle cx="4468.43" cy="5995.23" r="40.175" style="fill:#ff00d3;"/><circle cx="4664.43" cy="6486.21" r="40.175" style="fill:#ff00d3;"/><circle cx="4697.42" cy="6577.42" r="40.175" style="fill:#ff00d3;"/><circle cx="4722.65" cy="6713.26" r="40.175" style="fill:#ff00d3;"/><circle cx="4743.51" cy="6779.73" r="31.927" style="fill:#ff00d3;"/><circle cx="4588.26" cy="6220.83" r="53.274" style="fill:#ff00d3;"/><circle cx="4627.21" cy="6293.96" r="42.543" style="fill:#ff00d3;"/><circle cx="4041.49" cy="4662.03" r="40.175" style="fill:#ff00d3;"/><circle cx="4010.44" cy="4733.84" r="40.175" style="fill:#ff00d3;"/><circle cx="4377.22" cy="4892.97" r="40.175" style="fill:#ff00ac;"/><circle cx="4067.22" cy="4960.53" r="40.175" style="fill:#ff01c3;"/><circle cx="4044.36" cy="5007.23" r="40.175" style="fill:#ff012d;"/><circle cx="3420.49" cy="5182.12" r="40.175" style="fill:#ff00d3;"/><circle cx="3106.12" cy="5498.44" r="40.175" style="fill:#ff00d3;"/><circle cx="3399.22" cy="5930.65" r="40.175" style="fill:#ff012d;"/><circle cx="3786.73" cy="5944.31" r="57.562" style="fill:#ff00a2;"/><circle cx="3624.03" cy="5288.54" r="38.933" style="fill:#ff00a2;"/><circle cx="3892.06" cy="4640.69" r="47.937" style="fill:#ff00d3;"/><circle cx="1439.62" cy="5994.27" r="69.769" style="fill:#ff00d3;"/><circle cx="2274.85" cy="6096.73" r="48.034" style="fill:#ff00d3;"/><circle cx="3477.26" cy="7093.14" r="57.64" style="fill:#ff037c;"/><circle cx="4285.04" cy="6850.56" r="57.64" style="fill:#ff00fd;"/><circle cx="4639.2" cy="6913.63" r="57.64" style="fill:#ff00a2;"/><circle cx="627.439" cy="3772.56" r="57.64" style="fill:#ff00a2;"/><circle cx="574.033" cy="3711.71" r="39.631" style="fill:#ff012d;"/><circle cx="3288.05" cy="6714.72" r="43.085" style="fill:#ff012d;"/><circle cx="3908.56" cy="3490.88" r="48.907" style="fill:#ff0104;"/><circle cx="1769.23" cy="2062.2" r="41.145" style="fill:#ff0104;"/><circle cx="4092.14" cy="676.99" r="47.743" style="fill:#ff01c3;"/><circle cx="2699.56" cy="1108.58" r="47.743" style="fill:#ff01c3;"/><circle cx="4648.9" cy="6418.29" r="53.759" style="fill:#ff0104;"/><circle cx="4679.95" cy="6546.37" r="53.759" style="fill:#ff0104;"/><circle cx="4712.94" cy="6656.98" r="45.996" style="fill:#ff0104;"/><circle cx="4751.75" cy="6808.35" r="42.115" style="fill:#ff0104;"/><ellipse cx="4416.03" cy="5710.94" rx="40.175" ry="39.204" style="fill:#ff0104;"/><ellipse cx="4547.99" cy="5906.94" rx="40.175" ry="39.204" style="fill:#ff0104;"/><ellipse cx="4497.53" cy="5685.71" rx="40.175" ry="39.204" style="fill:#ff0104;"/></g><g id="Core-2" serif:id="Core 2"><path d="M4276.65,5296.13c36.786,146.028 87.92,267.66 155.795,357.163c22.481,20.705 48.847,42.521 91.145,68.888l-1.06,24.376l77.368,-9.538l-2.12,-23.316c-33.561,-0.707 -57.231,-9.892 -71.009,-27.556c-142.228,-113.337 -219.526,-256.189 -237.401,-426.051l-21.197,12.718l8.479,23.316Z" style="fill:url(#_Linear1);stroke:#fff;stroke-opacity:0;stroke-width:4.17px;"/></g><g id="Core"><path d="M3125.84,821.557c20.132,142.404 49.212,286.599 90.044,433.143l172.326,565.105l169.22,596.154l363.282,1352.21c27.056,146.951 57.278,272.464 80.459,405.977c69.62,400.964 141.512,739.29 174.149,794.094c57.054,224.653 123.551,359.6 197.165,426.934l121.094,139.723c50.417,22.309 37.56,52.211 -15.525,86.94c-176.288,105.565 -230.184,227.669 -253.055,353.966c-14.579,67.583 -8.205,132.173 6.21,195.613l40.365,-24.839c-4.715,-40.793 -10.817,-92.148 -3.105,-190.956c10.414,-130.668 87.392,-241.929 234.425,-322.917c101.213,-58.566 47.937,-88.165 12.42,-121.094c-150.451,-155.045 -266.154,-328.801 -308.945,-541.817c-40.721,-142.083 -73.939,-210.405 -126.803,-646.223c-25.021,-206.281 -82.928,-393.635 -129.357,-581.793l-527.845,-1943.71c-107.196,-339.255 -258.857,-780.178 -237.53,-995.143l-58.994,18.63Z" style="fill:url(#_Linear2);stroke:#fff;stroke-opacity:0;stroke-width:4.17px;"/><path d="M2987.61,1057.32l-48.752,7.418l130.359,228.923l308.41,488.582c119.677,242.919 221.589,492.601 290.393,760.957c92.797,242.439 150.293,492.111 187.59,737.641l50.835,153.234l-32.854,-198.188c-42.517,-242.797 -102.925,-480.162 -176.992,-722.803c-57.347,-219.04 -159.146,-490.615 -372,-893.436c-126.402,-178.783 -247.442,-360.865 -336.989,-562.328Z" style="fill:url(#_Linear3);stroke:#fff;stroke-opacity:0;stroke-width:4.17px;"/><path d="M3173.94,1087.14l-8.906,-41.249l-35.664,7.6l1.94,31.05c2.4,123.614 12.472,205.032 25.228,271.685c79.638,268.018 160.102,535.541 265.863,787.886c296.6,795.727 552.23,1703.51 760.718,2245.28c145.277,236.838 171.267,549.517 112.555,652.044l7.762,62.099l46.575,-118.376c21.024,-201.824 -12.613,-403.647 -126.139,-605.47c-29.514,-29.152 -128.352,-253.79 -241.503,-671.988c-121.113,-447.628 -345.746,-1025.53 -525.037,-1563.59c-111.484,-269.187 -196.446,-549.74 -271.685,-834.461c-20.164,7.562 -29.124,-215.829 -11.707,-222.511Z" style="fill:#40c2ff;stroke:#fff;stroke-opacity:0;stroke-width:4.17px;"/><path d="M3261.01,1669.02c-10.755,173.523 2.631,344.027 37.094,511.897c77.066,410.635 204.326,715.303 332.787,1017.44c95.57,182.644 145.013,379.696 265.029,575.203c136.653,222.608 183.821,395.517 212.953,587.429l103.864,611.521c54.312,76.93 48.717,229.587 -13.778,394.256c-28.373,118.469 -26.033,233.394 19.077,343.385c21.531,62.542 52.655,118.689 99.624,164.273c125.507,81.133 234.317,110.582 325.436,112.321c253.837,4.843 373.07,-187.478 337.7,-350.653c-17.621,-81.294 -121.055,-171.341 -290.459,-244.877c-86.025,-21.632 -192.794,-37.676 -316.506,-46.705l38.153,46.632c97.61,6.459 192.686,6.515 262.642,28.166c250.518,77.536 342.522,241.153 254.773,377.629c-37.516,58.348 -90.552,94.459 -146.211,124.277c-95.78,51.312 -196.456,33.365 -311.73,3.474c-104.565,-27.115 -177.133,-103.644 -229.046,-225.136c-38.837,-105.398 -39.591,-217.143 -10.599,-333.846c65.589,-108.046 113.005,-247.412 34.975,-392.136c-52.843,-190.101 -113.851,-637.16 -240.581,-1013.2c-132.534,-248.07 -256.779,-505.465 -366.701,-778.974c-118.429,-290.547 -261.616,-669.051 -334.906,-1029.09c-24.394,-94.044 -39.196,-211.538 -38.154,-367.761l3.18,-42.393l-28.616,-73.128Z" style="fill:url(#_Linear4);stroke:#fff;stroke-opacity:0;stroke-width:4.17px;"/><path d="M3598.54,1069.58l51.232,4.657c38.245,-30.736 78.319,-71.111 108.684,-108.055c64.308,-78.242 12.74,-166.297 -153.462,-57.049c-44.69,29.375 -98.148,79.543 -166.36,149.58c-65.861,98.949 -107.57,204.8 -144.381,312.049l34.154,-7.762c37.593,-95.737 68.472,-191.473 149.039,-287.21c46.837,-47.334 82.286,-88.337 116.928,-112.773c137.625,-97.082 179.417,-47.875 127.634,-4.578c-127.66,106.738 -150.152,147.014 -72.236,115.798" style="fill:url(#_Linear5);stroke:#fff;stroke-opacity:0;stroke-width:4.17px;"/></g><g id="Outline"><path id="A" d="M3943.26,1064.27c-0.509,1.017 -28.053,32.394 -28.053,32.394l2.278,0.023l-1.593,2.155l66.558,0.969l2.916,-1.959l32.739,-0.515l-8.498,-31.245l-6.628,-0.867c-11.82,-0.472 -31.072,-1.957 -44.588,-2.125c-8.501,-0.106 -14.991,0.89 -15.131,1.17Z" style="fill:#f9c1ff;stroke:#fff;stroke-opacity:0;stroke-width:4.17px;"/><path id="_10" serif:id="10" d="M2186.59,830.961l-83.834,31.05c-198.956,236.651 17.565,299.143 268.58,339.994c247.613,2.403 482.572,-43.282 709.486,-119.541c202.075,-91.682 318.084,-144.74 372.511,-202.2c191.763,-237.899 -198.781,-161.914 -268.495,43.846c12.096,-10.49 8.97,50.966 14.075,36.724c4.292,-11.975 44.406,-90.41 54.2,-98.047c201.5,-157.117 379.128,-94.129 -52.75,120.318c-110.449,50.58 -102.75,42.831 -209.585,83.834c-317.58,106.187 -458.642,94.203 -627.205,102.464c-257.998,-44.304 -425.114,-119.896 -176.983,-338.442Z" style="fill:url(#_Linear6);stroke:#fff;stroke-opacity:0;stroke-width:4.17px;"/><path id="_7" serif:id="7" d="M3696.16,2520.02c-241.912,256.016 -412.618,546.723 -525.362,865.667c-326.477,1095.53 221.957,1793.93 966.268,2000.85c299.815,85.231 546.881,73.498 731.133,32.894c268.451,-59.158 413.783,-190.323 502.163,-322.278c239.489,-454.118 -275.628,-825.05 -1162.5,-746.436c-435.661,63.495 -822.145,203.615 -1143.87,444.632c-413.106,267.627 -717.791,691.888 -753.888,1102.89c-46.026,278.981 21.844,501.818 163.943,688.062l19.871,-22.356c-121.147,-186.486 -179.663,-399.649 -157.732,-647.077c56.538,-409.105 295.192,-757.123 677.629,-1062.89c352.814,-246.704 754.379,-405.506 1205.23,-474.688c204.098,-0.641 387.273,-12.986 540.181,13.074c464.929,79.236 686.842,292.881 624.97,573.222c-11.088,50.244 -35.636,102.342 -64.965,156.406c-282.512,303.421 -685.642,371 -1175.95,233.502c-422.73,-128.902 -712.334,-374.835 -873.802,-690.82c-186.136,-364.261 -201.991,-821.614 -55.206,-1300.09c116.785,-289.888 276.51,-565.016 499.28,-818.471l-17.388,-26.082Z" style="fill:url(#_Linear7);stroke:#fff;stroke-opacity:0;stroke-width:4.17px;"/><path id="_6" serif:id="6" d="M2277.86,751.132c673.811,-338.423 1340.57,-433.82 1984.57,-440.043c443.765,-4.287 880.656,51.542 1304.59,201.457c232.886,82.355 462.184,201.671 689.212,337.524c831.414,725.538 805.78,1535.62 446.223,2377.77c-455.685,858.154 -1125.93,1597.13 -2015.81,2190.47c-444.501,307.341 -916.34,555.451 -1399.67,778.671c-275.728,122.827 -551.457,227.291 -827.185,317.775c-433.903,137.677 -871.968,196.28 -1312.34,211.041c-360.451,-3.728 -585.232,-85.364 -725.19,-171.258c-314.235,-192.848 -431.662,-579.133 -101.453,-1051.98c197.986,-283.508 559.285,-578.228 1068.26,-882.509c388.119,-232.029 1060.56,-455.156 1684.84,-549.36c307.839,-31.811 613.876,-47.411 916.539,-32.642l-2.425,-29.11c-295.388,-16.182 -604.899,-0.585 -920.991,29.817c-612.778,102.533 -1093.87,234.553 -1489.05,436.051c-1517.19,773.603 -1733.19,1603.01 -1323.54,2018.16c190.42,192.977 525.785,281.386 895.435,276.491c449.677,-14.697 895.008,-75.036 1331.75,-225.596c263.777,-76.74 523.789,-172.305 781.097,-281.389c538.336,-249.998 1053.79,-527.038 1520.95,-861.146c887.307,-629.857 1549.78,-1336.63 1945.46,-2134.67c349.445,-827.251 412.991,-1626.08 -344.458,-2343.29c-61.673,-58.395 -134.662,-112.984 -206.502,-160.561c-205.385,-136.018 -420.588,-246.232 -643.18,-308.804c-152.116,-42.76 -298.215,-85.791 -446.642,-112.628c-723.006,-130.724 -1407.3,-95.894 -2246.01,133.853c-230.927,63.258 -508.113,211.135 -702.759,324.426l138.268,-48.515Z" style="fill:url(#_Linear8);stroke:#fff;stroke-opacity:0;stroke-width:4.17px;"/><path id="_5" serif:id="5" d="M3554.47,1092.56c-89.337,35.896 -172.298,88.36 -254.088,127.116c-75.051,35.562 -149.116,57.742 -226.217,84.429c-533.975,184.822 -1015.4,273.27 -1342.39,180.918c-72.35,-20.433 -135.295,-55.255 -191.655,-93.609c-35.73,-46.999 -33.486,-99.84 -1.941,-157.189c163.896,-178.779 380.123,-313.49 642.343,-409.469c524.424,-187.982 1084.94,-274.687 1661.16,-312.439c488.881,-19.766 970.843,8.932 1445.34,103.147c354.389,70.367 699.756,199.751 1048.35,317.966c822.926,397.78 1417.2,1021.41 1618.47,1899.86c47.783,199.568 60.255,402.668 56.277,607.412c-57.244,735.193 -332.158,1383.96 -741.313,1979.42c-640.97,839.062 -1501.47,1522.02 -2608.18,2029.88c-465.583,198.799 -934.244,320.639 -1405,390.063l-481.271,36.871c-995.214,-29.667 -1588.34,-408.835 -1597.12,-1160.49c7.232,-121.017 18.64,-191.458 54.396,-302.882c22.552,-70.28 77.327,-189.563 113.102,-258.974c290.407,-563.454 878.401,-1010.68 1693.55,-1314.71c426.62,-125.988 864.533,-164.457 1311.85,-130.021c418.004,41.068 729.522,208.666 1003.3,421.112c93.643,119.595 186.199,222.431 219.525,332.848c190.351,630.668 -223.009,1121.02 -823.404,1170.58c-173.73,14.342 -566.87,-99.993 -500.328,-387.577c19.242,-94.437 79.838,-169.921 180.476,-227.052l-11.643,-23.287c-117.758,54.43 -183.154,155.511 -207.646,293.032c-58.958,528.81 1061.25,524.605 1372.74,-145.503c80.056,-172.219 122.357,-390.672 29.673,-681.444c-36.859,-115.635 -128.336,-230.335 -241.929,-358.766c-280.414,-232.73 -621.664,-381.226 -1034.35,-430.816c-436.638,-35.867 -873.275,3.523 -1309.91,143.605c-231.384,98.21 -445.688,169.248 -648.4,282.483c-454.318,253.782 -807.813,579.697 -1042.06,975.613c-111.224,187.987 -175.397,403.136 -193.875,639.822c3.374,179.919 13.307,350.993 81.473,483.12c280.18,543.079 882.342,754.409 1736.88,710.356l461.865,-56.278c525.861,-75.528 1008.52,-240.779 1467.1,-456.043c1188.83,-555.311 1907.43,-1263.56 2449.05,-2026c403.441,-534.671 644.489,-1165.3 706.382,-1901.8c11.065,-186.115 3.85,-394.729 -52.396,-663.689c-115.465,-448.7 -372.912,-1320.77 -1758.19,-1956.14c-921.756,-362.775 -1954.87,-500.813 -3161.26,-289.151c-335.968,53.235 -659.589,151.739 -980.009,261.982c-452.361,187.539 -691.324,381.06 -589.946,584.124c202.153,231.458 827.052,218.312 1595.18,-65.98c210.189,-71.171 366.394,-160.336 514.262,-252.28l-58.218,5.822Z" style="fill:url(#_Linear9);stroke:#fff;stroke-opacity:0;stroke-width:4.17px;"/><path id="_4" serif:id="4" d="M2988.57,1065.9c-50.595,-207.508 58.405,-309.427 198.912,-366.29c153.44,-57.94 273.858,-87.582 368.83,-94.956c522.249,-40.552 488.73,383.05 -213.581,752.338c-967.181,505.007 -2495.41,728.272 -2258.39,194.061c280.588,-298.235 910.819,-521.691 1842.82,-652.567c66.639,-9.358 134.821,-18.242 204.529,-26.647c1294.81,-121.952 2539.36,47.039 3672.61,703.471c644.945,413.96 998.096,917.244 1237.14,1455.46c249.923,768.804 187.861,1493.62 -91.482,2172.84c-527.456,1282.51 -1996.59,2501.5 -3651.47,2770.86c-1173.2,194.934 -2065.01,-224.241 -2255.18,-926.311c-178.537,-659.135 316.14,-1542.02 1534.73,-1950.64c266.33,-59.636 518.001,-89.954 751.987,-84.902c423.955,41.932 702.267,171.184 852.196,334.482c151.628,165.149 213.413,360.814 167.387,526.66c-39.093,140.868 -117.681,287.697 -245.789,373.834c-255.919,172.074 -622.112,241.343 -824.853,-38.439c-62.616,-238.812 5.322,-369.074 162.644,-420.293l12.129,-19.406c23.647,-23.699 -348.809,69.477 -186.784,487.579c544.62,588.408 1638.64,-324.075 882.978,-992.138c-270.212,-213.667 -603.868,-292.515 -977.583,-286.24c-723.491,37.121 -1397.57,331.862 -1862.99,933.919c-602.959,741.61 -347.508,1533.13 318.337,1900.35c423.451,233.534 1029.2,321.699 1699.9,200.364c1077.36,-111.885 2715.26,-1009.21 3508.18,-2459.97c422.538,-773.099 603.263,-1694.39 198.388,-2629.28c-264.991,-571.014 -661.059,-1054.64 -1261.4,-1402.09c-761.462,-460.689 -1604.72,-679.672 -2653.78,-710.749c-394.59,-4.626 -789.181,12.453 -1183.77,53.367c-832.926,103.455 -1757.72,335.014 -1933.33,785.947c-16.304,316.69 854.318,436.957 2188.04,-160.1c308.851,-180.185 673.241,-301.128 773.818,-703.472c-24.326,-452.248 -1230.14,-201.492 -1011.54,288.666l36.387,-9.703Z" style="fill:url(#_Linear10);stroke:#fff;stroke-opacity:0;stroke-width:4.17px;"/><path d="M2944.73,863.612c-5.865,11.344 -9.009,22.687 -11.315,34.03c17.836,0.177 35.671,-1.531 53.506,-7.283l12.002,-32.228c-17.77,0.063 -35.83,1.862 -54.193,5.481Z" style="fill:#25c1ff;stroke:#fff;stroke-opacity:0;stroke-width:4.17px;"/><path d="M3911.53,811.025l-4.688,24.379l43.162,-0.12l7.735,-24.805l-46.209,0.546Z" style="fill:#25c1ff;stroke:#fff;stroke-opacity:0;stroke-width:4.17px;"/><path id="_1" serif:id="1" d="M3634.73,3205.15c-286.845,131.952 -596.561,227.104 -902.177,319.062c-455.971,136.568 -910.946,238.368 -1364.27,253.05c-231.618,15.661 -448.312,18.473 -663.37,-25.244c-71.04,-14.441 -157.452,-35.346 -218.274,-67.667c-29.116,-15.471 -54.162,-33.559 -82.279,-48.835c-259.339,-140.897 -317.834,-388.6 116.757,-727.424c290.851,-189.859 590.625,-333.028 902.176,-440.087c505.581,-152.615 1018.63,-234.592 1507.3,-270.984l616.121,-26.074l-11.002,-22.004l-44.009,-0l-692.355,27.734c-458.423,46.313 -928.63,125.069 -1387.05,258.322c-9.889,5.289 -99.119,30.842 -216.242,74.832c-255.235,95.864 -682.085,349.2 -696.937,376.256c-2.524,4.599 -75.032,50.349 -143.954,120.929c-50.809,52.03 -97.338,111.638 -129.758,173.048c-25.065,47.479 -45.717,111.464 -49.371,135.107c-6.301,40.773 -7.39,70.38 -3.882,100.314c5.196,44.332 20.297,60.046 29.907,86.723c8.116,22.532 60.827,95.177 133.974,145.788c55.552,38.437 119.271,70.51 130.078,74.255c5.056,3.288 114.245,51.215 204.991,61.408c138.516,15.558 257.169,33.411 257.099,26.609c166.601,20.559 299.674,9.742 465.255,0.948c171.842,-9.126 365.15,-27.924 535.942,-55.958c395.865,-75.045 789.316,-169.408 1177.23,-308.061c230.601,-82.738 449.878,-171.139 660.13,-264.052l-11.002,-33.006l-121.024,55.011Z" style="fill:url(#_Linear11);stroke:#fff;stroke-opacity:0;stroke-width:4.17px;"/><path id="_3" serif:id="3" d="M3570.84,2147.42l7.452,24.84c757.553,14.076 1432.96,157.596 2020.65,400.553c233.273,96.437 456.686,211.731 656.543,351.133c108.576,75.733 209.935,153.104 309,238.281c38.396,33.014 75.212,72.205 113.812,105.468c602.852,595.421 782.024,1300.93 616.498,2097.72c-108.209,360.997 -289.364,725.853 -569.56,1045.24c-335.333,382.234 -802.285,699.801 -1407.44,896.528c-155.649,50.598 -273.704,81.446 -451.797,97.252c-101.617,9.019 -205.47,13.909 -306.667,14.321c-151.327,0.617 -295,-19.57 -427.162,-50.719c-470.465,-110.881 -812.921,-355.305 -888.936,-806.347c-11.241,-66.703 -7.91,-151.473 -1.389,-232.504c1.696,-21.076 5.724,-40.308 8.564,-62.084c137.772,-438.294 455.667,-719.671 938.944,-856.973l-49.68,-19.872c-344.193,100.985 -604.837,277.937 -774.788,546.093c-53.992,85.192 -94.543,182.448 -131.268,285.693c-20.134,56.602 -24.776,98.93 -28.911,155.141c-6.935,94.273 -1.254,203.25 17.867,283.789c82.098,345.802 363.906,577.363 773.197,712.296c128.46,42.351 269.354,65.837 428.244,73.419c74.709,3.565 154.635,-0.721 236.846,-0.263c347.16,-2.863 682.072,-88.472 1012.67,-230.442c433.67,-206.577 808.213,-463.668 1094.43,-786.644c255.975,-288.845 439.756,-630.696 557.089,-1031.22c16.782,-69.632 29.477,-143.392 39.693,-215.923c14.122,-100.27 23.759,-202.602 27.2,-303.099c6.239,-182.195 -21.308,-362.69 -57.616,-537.315c-77.587,-373.153 -265.52,-724.071 -606.351,-1067.87c-616.912,-621.337 -1609.47,-1081.58 -3157.14,-1126.49Z" style="fill:url(#_Linear12);stroke:#fff;stroke-opacity:0;stroke-width:4.17px;"/><path id="_2" serif:id="2" d="M3755.75,3150.14c-0,0 4.278,1.425 141.269,-65.042c163.603,-79.378 332.76,-168.564 488.888,-262.849c90.13,-54.428 175.483,-107.685 255.17,-167.035c75.115,-55.944 147.985,-108.976 220.124,-171.04c146.818,-126.314 245.009,-251.973 293.817,-349.12c193.511,-385.162 -394.358,-434.213 -1024.94,33.237c-53.367,43.769 -105.217,87.96 -157.048,133.572c-89.156,78.459 -176.374,161.786 -262.804,243.516l-12.718,-21.462c54.457,-56.53 106.578,-108.773 161.726,-159.539c87.36,-80.417 177.532,-154.274 269.095,-231.539c108.174,-83.832 213.571,-143.224 331.654,-202.454c105.341,-52.839 205.009,-91.095 312.147,-110.262c63.583,-11.375 121.681,-16.798 199.879,-21.767c60.471,2.997 106.31,9.255 136.704,23.194c99.703,45.723 125.101,75.552 130.912,173.144c7.298,122.549 -175.444,370.333 -325.96,495.044c-52.59,43.573 -111.741,93.98 -181.723,145.691c-88.54,65.424 -187.476,127.585 -255.128,171.761c-168.298,109.897 -302.202,178.738 -485.203,271.549l-221.77,104.924l-14.089,-33.523Z" style="fill:url(#_Linear13);stroke:#fff;stroke-opacity:0;stroke-width:4.17px;"/><path id="_8" serif:id="8" d="M3205.34,745.294c-339.728,157.161 -521.517,13.946 -32.291,-152.765c633.599,-149.822 859.094,-28.794 901.684,213.623c-56.952,251.161 -318.622,491.466 -725.322,724.079c-427.197,212.352 -797.736,348.281 -1083.59,434.678c-260.387,78.701 -633.608,156.145 -905.025,160.131c-307.678,4.519 -585.361,-58.724 -576.006,-217.215c7.747,-131.25 211.058,-307.814 774.913,-515.454c455.091,-142.771 923.269,-228.833 1402.21,-268.27c342.972,-26.049 682.005,-30.44 1019.67,-27.324c1396.09,50.835 2193.23,401.952 2942.27,900.443c487.072,342.342 851.378,819.082 1086.74,1436.98c205.012,689.509 128.673,1389.66 -156.49,2097.72c-145.577,274.475 -301.55,524.389 -477.381,744.306c-230.721,288.571 -474.104,536.922 -739.097,741.255c-660.884,509.6 -1595.61,892.726 -2164.22,915.205c-516.671,61.65 -849.051,-26.221 -1187.34,-109.295c-668.68,-289.177 -938.232,-711.991 -865.03,-1249.57c203.582,-893.031 1049.66,-1352.13 1826.22,-1404.94c255.684,-6.78 511.368,36.161 767.052,211.635c130.578,128.819 202.024,243.517 209.187,343.397c10.182,141.98 -25.581,269.533 -109.243,356.757c-225.429,235.024 -582.24,311.636 -812.349,57.956l-15.897,22.853c271.734,322.81 801.808,157.506 958.836,-231.262c34.067,-84.342 26.429,-189.822 2.419,-304.052c-16.682,-79.367 -91.164,-163.066 -193.209,-264.527c-243.306,-198.363 -532.902,-230.628 -832.63,-226.539c-764.804,27.472 -1692.12,574.394 -1831.19,1446.67c-65.944,595.198 229.556,1030.98 922.053,1291.67c497.929,140.968 1053.96,185.096 1760.64,-21.859c1673.03,-497.961 2465.01,-1564.07 2805.59,-2308.77c47.944,-104.832 85.862,-204.622 117.557,-296.426c274.54,-734.564 195.309,-1486.48 7.949,-1904.72c-192.757,-556.862 -575.616,-1010.03 -1088.98,-1392.02c-595.945,-425.164 -1529.46,-844.971 -2964.88,-885.29c-516.172,16.504 -891.933,-32.132 -1715.93,127.179c-376.138,67.691 -678.671,151.965 -909.57,247.958c-1068.54,444.234 -634.819,984.135 882.069,597.285c336.216,-85.745 719.535,-245.961 1154.23,-462.71c455.914,-255.442 736.073,-511.942 752.149,-770.033c-7.748,-340.01 -531.037,-419.176 -1111.83,-189.776c-384.607,203.423 -61.808,328.507 214.616,169.904l3.974,-38.75l-14.547,-0.125Z" style="fill:url(#_Linear14);stroke:#fff;stroke-opacity:0;stroke-width:4.17px;"/><path id="_9" serif:id="9" d="M4068.57,4014.65l4.657,32.602c537.138,39.424 1058.3,216.207 1554.04,611.68c222.943,241.071 358.567,443.319 410.764,616.874c55.849,185.7 63.334,361.752 46.113,523.576c-13.028,122.431 -47.146,242.051 -103.451,351.004c-168.78,326.595 -405.443,554.892 -646.36,655.827c-208.073,87.174 -408.354,142.845 -578.216,129.063c-443.47,-35.983 -804.634,-291.153 -501.248,-689.704c108.488,-100.949 226.849,-154.178 360.177,-135.066c114.024,50.589 121.453,118.631 82.282,181.641l43.469,-4.658c43.094,-84.797 20.559,-156.355 -85.386,-195.613c-148.522,-38.667 -297.043,-6.886 -445.564,149.039c-93.721,133.417 -109.402,252.475 -84.006,356.357c97.477,398.734 890.121,531.242 1465.77,95.419c354.47,-268.367 590.421,-668.481 536.758,-1198.23c-27.266,-269.163 -162.126,-549.945 -445.215,-821.562c-324.513,-306.09 -792.141,-580.47 -1614.59,-658.254Z" style="fill:url(#_Linear15);stroke:#fff;stroke-opacity:0;stroke-width:4.17px;"/></g><g id="Dots-Middle" serif:id="Dots Middle"><circle cx="1086.38" cy="4399.56" r="54.822" style="fill:#ff037c;"/><circle cx="2173.12" cy="4120.11" r="54.822" style="fill:#ff01c3;"/><circle cx="2277.14" cy="4068.88" r="46.284" style="fill:#ff037c;"/><circle cx="2649.74" cy="3881.02" r="46.284" style="fill:#ff012d;"/><circle cx="2902.79" cy="3736.64" r="38.521" style="fill:#ff01c3;"/><circle cx="3466.35" cy="3738.2" r="48.612" style="fill:#ff037c;"/><circle cx="3481.87" cy="3773.9" r="48.612" style="fill:#ff01c3;"/><circle cx="4050.08" cy="3542.58" r="35.416" style="fill:#ff01c3;"/><circle cx="3688.35" cy="3806.51" r="48.612" style="fill:#ff01c3;"/><circle cx="3815.04" cy="4175.38" r="48.612" style="fill:#ff01c3;"/><circle cx="3666" cy="4088.44" r="42.402" style="fill:#ff00ac;"/><circle cx="3865.34" cy="3890.34" r="48.612" style="fill:#ff01c3;"/><circle cx="4214.65" cy="3714.91" r="48.612" style="fill:#ff00fd;"/><circle cx="4098.21" cy="3371.81" r="56.375" style="fill:#ff00fd;"/><circle cx="4210.49" cy="3162.16" r="70.782" style="fill:#ff00b0;"/><circle cx="3983.33" cy="3348.52" r="45.507" style="fill:#ff00a2;"/><circle cx="4217.75" cy="3367.15" r="45.507" style="fill:#ff00a2;"/><circle cx="4666.42" cy="4058.01" r="45.507" style="fill:#ff00a2;"/><circle cx="4750.26" cy="4008.33" r="36.969" style="fill:#ff00d3;"/><circle cx="4688.15" cy="3761.48" r="58.704" style="fill:#ff00d3;"/><circle cx="4888.43" cy="3511.53" r="58.704" style="fill:#ff00ac;"/><circle cx="4231.41" cy="3988.46" r="38.832" style="fill:#ff00ac;"/><circle cx="4267.43" cy="3941.26" r="54.357" style="fill:#ff037c;"/><circle cx="5003.31" cy="3576.74" r="41.626" style="fill:#ff0104;"/><circle cx="4543.77" cy="4196.49" r="41.626" style="fill:#ff0104;"/><circle cx="3955.07" cy="4267.28" r="41.626" style="fill:#ff0104;"/><circle cx="5129.06" cy="3337.65" r="71.123" style="fill:#ff0104;"/><circle cx="5729.88" cy="3151.35" r="59.48" style="fill:#ff0104;"/><circle cx="5802.84" cy="3291.08" r="47.06" style="fill:#ff037c;"/><circle cx="6102.47" cy="3241.4" r="47.06" style="fill:#ff0104;"/><circle cx="7709.3" cy="3516.19" r="47.06" style="fill:#ff0104;"/><circle cx="5759.37" cy="3638.84" r="47.06" style="fill:#ff00fd;"/><circle cx="7240.45" cy="2654.56" r="61.808" style="fill:#ff01c3;"/><circle cx="6954.79" cy="3404.41" r="35.416" style="fill:#ff00a2;"/><circle cx="4935" cy="3126.51" r="45.507" style="fill:#ff00a2;"/><circle cx="3939.86" cy="3342.31" r="45.507" style="fill:#ff00fd;"/><circle cx="3792.37" cy="3677.65" r="41.626" style="fill:#ff01c3;"/><circle cx="3231.92" cy="3663.68" r="49.389" style="fill:#ff0104;"/><circle cx="3255.61" cy="4691.78" r="49.389" style="fill:#ff0104;"/><circle cx="3556.39" cy="3610.89" r="42.402" style="fill:#ff0104;"/><circle cx="3787.71" cy="3739.75" r="45.507" style="fill:#ff0104;"/><ellipse cx="2732.8" cy="4009.88" rx="61.032" ry="46.284" style="fill:#ff012d;"/></g><g id="Dots-Outer-Top" serif:id="Dots Outer Top"><circle cx="763.178" cy="2324.15" r="52.397" style="fill:#ff00fd;"/><circle cx="719.708" cy="2870.63" r="52.397" style="fill:#ff00fd;"/><circle cx="1318.97" cy="2232.55" r="52.397" style="fill:#ff00fd;"/><circle cx="2494.2" cy="2161.14" r="52.397" style="fill:#ff00fd;"/><circle cx="2683.61" cy="2085.07" r="52.397" style="fill:#ff00fd;"/><circle cx="2568.72" cy="3207.52" r="52.397" style="fill:#ff00fd;"/><circle cx="1974.9" cy="2584.19" r="45.41" style="fill:#ff00fd;"/><circle cx="4222.12" cy="1578.96" r="45.41" style="fill:#ff00fd;"/><circle cx="4550.09" cy="1396.54" r="45.41" style="fill:#ff00fd;"/><circle cx="5004.19" cy="1518.8" r="45.41" style="fill:#ff00fd;"/><circle cx="5310.81" cy="1136.5" r="45.41" style="fill:#ff00fd;"/><circle cx="2486.44" cy="2758.85" r="35.319" style="fill:#ff00fd;"/><circle cx="4312.56" cy="2770.49" r="43.082" style="fill:#ff00fd;"/><circle cx="3380.09" cy="3206.16" r="35.319" style="fill:#ff00fd;"/><circle cx="2428.22" cy="2773.6" r="45.41" style="fill:#ff00ae;"/><circle cx="4103.46" cy="2064.79" r="53.658" style="fill:#ff00ae;"/><circle cx="1710.2" cy="1679.09" r="45.41" style="fill:#ff00ae;"/><circle cx="1383.69" cy="2316.1" r="56.569" style="fill:#ff00ae;"/><circle cx="3195.25" cy="2932.24" r="63.361" style="fill:#ff00ae;"/><circle cx="1464.9" cy="3642.99" r="60.159" style="fill:#ff037c;"/><circle cx="2505.07" cy="2934.67" r="60.159" style="fill:#ff037c;"/><circle cx="2708.84" cy="2532.96" r="60.159" style="fill:#ff037c;"/><circle cx="2813.63" cy="2884.21" r="52.397" style="fill:#ff037c;"/><circle cx="1142.76" cy="2682.39" r="52.397" style="fill:#ff037c;"/><circle cx="2915.03" cy="2330.65" r="45.119" style="fill:#ff037c;"/><circle cx="5418.41" cy="1393.34" r="45.119" style="fill:#ff037c;"/><circle cx="5730.85" cy="1705.78" r="50.941" style="fill:#ff00a2;"/><circle cx="6033.59" cy="1302.13" r="50.941" style="fill:#ff00a2;"/><circle cx="6051.54" cy="1623.78" r="43.664" style="fill:#ff00a2;"/><circle cx="4605.78" cy="1221.11" r="43.664" style="fill:#ff00a2;"/><circle cx="4586.38" cy="624.369" r="43.664" style="fill:#ff00a2;"/><circle cx="2654.98" cy="1267.2" r="45.119" style="fill:#ff037c;"/><circle cx="3489.45" cy="2522.77" r="45.119" style="fill:#ff037c;"/><circle cx="3054.75" cy="1866.85" r="45.119" style="fill:#ff037c;"/><circle cx="4019.23" cy="2491.72" r="45.119" style="fill:#ff012d;"/><circle cx="3830.99" cy="2286.02" r="45.119" style="fill:#ff012d;"/><circle cx="4095.4" cy="2530.05" r="49.486" style="fill:#ff012d;"/><circle cx="4013.9" cy="2780.39" r="49.486" style="fill:#ff012d;"/><circle cx="4109.47" cy="2777.96" r="42.208" style="fill:#ff012d;"/><circle cx="3921.23" cy="1842.59" r="42.208" style="fill:#ff012d;"/><circle cx="4192.92" cy="1469.99" r="42.208" style="fill:#ff012d;"/><circle cx="4582.98" cy="1535.97" r="48.03" style="fill:#ff012d;"/><circle cx="6137.41" cy="1759.14" r="57.733" style="fill:#ff012d;"/><circle cx="5660.02" cy="2125.92" r="55.793" style="fill:#ff012d;"/><circle cx="4755.7" cy="1611.65" r="42.208" style="fill:#ff012d;"/><circle cx="6100.54" cy="1431.18" r="42.208" style="fill:#ff012d;"/><circle cx="4955.58" cy="691.32" r="42.208" style="fill:#ff012d;"/><circle cx="4105.11" cy="2850.25" r="32.02" style="fill:#ff012d;"/><circle cx="1970.92" cy="1648.53" r="55.793" style="fill:#ff037c;"/><circle cx="2959.66" cy="2817.74" r="39.297" style="fill:#ff037c;"/></g><g id="Dots-Bottom" serif:id="Dots Bottom"><circle cx="243.653" cy="5851.05" r="49.389" style="fill:#ff012d;"/><circle cx="1423.54" cy="5621.28" r="73.452" style="fill:#ff012d;"/><circle cx="1530.67" cy="5698.9" r="41.626" style="fill:#ff012d;"/><circle cx="962.455" cy="5852.6" r="57.927" style="fill:#ff01c3;"/><circle cx="1578.79" cy="6128.94" r="40.85" style="fill:#ff01c3;"/><circle cx="1847.37" cy="6524.83" r="40.85" style="fill:#ff01c3;"/><circle cx="2510.28" cy="6616.42" r="48.612" style="fill:#ff00fd;"/><circle cx="3159.22" cy="6871.03" r="48.612" style="fill:#ff01c3;"/><circle cx="3451.09" cy="6805.83" r="48.612" style="fill:#ff012d;"/><circle cx="4146.61" cy="6815.14" r="48.612" style="fill:#ff00fd;"/><circle cx="5037.74" cy="6496.88" r="36.969" style="fill:#ff0104;"/><circle cx="6116.72" cy="6077.71" r="36.969" style="fill:#ff0104;"/><circle cx="5438.28" cy="5591.78" r="61.808" style="fill:#ff0104;"/><circle cx="1517.22" cy="4693.83" r="42.433" style="fill:#ff00ac;"/><circle cx="2069.66" cy="4711.71" r="42.433" style="fill:#ff0104;"/><circle cx="2558.5" cy="4953.15" r="42.433" style="fill:#ff00a2;"/><circle cx="3051.32" cy="4750.46" r="34.485" style="fill:#ff00a2;"/><circle cx="2954.95" cy="4633.22" r="42.93" style="fill:#ff037c;"/><circle cx="3595.81" cy="4936.26" r="42.93" style="fill:#ff037c;"/><circle cx="3651.7" cy="5356.06" r="42.93" style="fill:#ff012d;"/><circle cx="3522.93" cy="5226.49" r="42.93" style="fill:#ff012d;"/><circle cx="3879.83" cy="5367.18" r="42.93" style="fill:#e000aa;"/><circle cx="3202.1" cy="5783.3" r="42.93" style="fill:#ff00ac;"/><circle cx="3900.1" cy="5631.78" r="42.93" style="fill:#ff00fd;"/><circle cx="3839.24" cy="5809.38" r="42.93" style="fill:#ff00a2;"/><circle cx="4578.48" cy="4584.53" r="42.93" style="fill:#ff037c;"/><circle cx="6095.69" cy="4412.64" r="63.299" style="fill:#ff037c;"/><circle cx="6439.47" cy="3862.19" r="50.879" style="fill:#ff037c;"/><circle cx="6609.38" cy="4426.55" r="39.949" style="fill:#ff01c3;"/><circle cx="4735.46" cy="4911.42" r="42.93" style="fill:#ff037c;"/><circle cx="5678.38" cy="4883.6" r="42.93" style="fill:#ff012d;"/><circle cx="4463.22" cy="4518.95" r="42.93" style="fill:#ff00fd;"/><circle cx="5016.65" cy="4602.42" r="34.981" style="fill:#ff01c3;"/><circle cx="4889.47" cy="4686.87" r="34.981" style="fill:#ff01c3;"/><circle cx="5603.86" cy="4470.27" r="34.981" style="fill:#ff01c3;"/><circle cx="5050.43" cy="4653.09" r="45.911" style="fill:#ff00fd;"/><circle cx="4399.63" cy="5264.15" r="36.472" style="fill:#ff037c;"/><circle cx="4473.15" cy="5253.22" r="36.472" style="fill:#ff037c;"/><circle cx="4018.09" cy="4790.2" r="42.93" style="fill:#ff037c;"/></g><g id="Dots"></g><defs><linearGradient id="_Linear1" x1="0" y1="0" x2="1" y2="0" gradientUnits="userSpaceOnUse" gradientTransform="matrix(205.607,339.145,-497.341,301.513,4306.32,5357.07)"><stop offset="0" style="stop-color:#d1c1ff;stop-opacity:1"/><stop offset="1" style="stop-color:#a1c1ff;stop-opacity:1"/></linearGradient><linearGradient id="_Linear2" x1="0" y1="0" x2="1" y2="0" gradientUnits="userSpaceOnUse" gradientTransform="matrix(1167.27,4904.37,-18339.9,4364.99,3162.86,979.467)"><stop offset="0" style="stop-color:#11c1ff;stop-opacity:1"/><stop offset="0.5" style="stop-color:#cdc1ff;stop-opacity:1"/><stop offset="1" style="stop-color:#25c1ff;stop-opacity:1"/></linearGradient><linearGradient id="_Linear3" x1="0" y1="0" x2="1" y2="0" gradientUnits="userSpaceOnUse" gradientTransform="matrix(696.42,1644.25,-4038.88,1710.67,3102.38,1321.8)"><stop offset="0" style="stop-color:#f7c1ff;stop-opacity:1"/><stop offset="1" style="stop-color:#b5c0ff;stop-opacity:1"/></linearGradient><linearGradient id="_Linear4" x1="0" y1="0" x2="1" y2="0" gradientUnits="userSpaceOnUse" gradientTransform="matrix(971.465,2192.81,-5474.46,2425.31,3958.58,3574.46)"><stop offset="0" style="stop-color:#5fc1ff;stop-opacity:1"/><stop offset="0.82" style="stop-color:#dcbcf8;stop-opacity:1"/><stop offset="1" style="stop-color:#9ab1ea;stop-opacity:1"/></linearGradient><linearGradient id="_Linear5" x1="0" y1="0" x2="1" y2="0" gradientUnits="userSpaceOnUse" gradientTransform="matrix(191.367,4.65745,-4.86412,199.859,3465.03,1067.8)"><stop offset="0" style="stop-color:#85c1ff;stop-opacity:1"/><stop offset="1" style="stop-color:#c7c2ff;stop-opacity:1"/></linearGradient><linearGradient id="_Linear6" x1="0" y1="0" x2="1" y2="0" gradientUnits="userSpaceOnUse" gradientTransform="matrix(1480.83,0,0,469.261,2024.96,967.465)"><stop offset="0" style="stop-color:#d4c1ff;stop-opacity:1"/><stop offset="1" style="stop-color:#79c1ff;stop-opacity:1"/></linearGradient><linearGradient id="_Linear7" x1="0" y1="0" x2="1" y2="0" gradientUnits="userSpaceOnUse" gradientTransform="matrix(-377.527,1762.47,-2287.34,-489.956,3276.53,3501.37)"><stop offset="0" style="stop-color:#98c1ff;stop-opacity:1"/><stop offset="1" style="stop-color:#28c1ff;stop-opacity:1"/></linearGradient><linearGradient id="_Linear8" x1="0" y1="0" x2="1" y2="0" gradientUnits="userSpaceOnUse" gradientTransform="matrix(1564.65,1841.83,-1734.47,1473.45,2583.33,2765.53)"><stop offset="0" style="stop-color:#e6c1ff;stop-opacity:1"/><stop offset="1" style="stop-color:#25c1ff;stop-opacity:1"/></linearGradient><linearGradient id="_Linear9" x1="0" y1="0" x2="1" y2="0" gradientUnits="userSpaceOnUse" gradientTransform="matrix(1002.64,6107.17,-6591.23,1082.11,2859.75,553.318)"><stop offset="0" style="stop-color:#f2c1ff;stop-opacity:1"/><stop offset="0.13" style="stop-color:#bdc1ff;stop-opacity:1"/><stop offset="1" style="stop-color:#67befb;stop-opacity:1"/></linearGradient><linearGradient id="_Linear10" x1="0" y1="0" x2="1" y2="0" gradientUnits="userSpaceOnUse" gradientTransform="matrix(670.875,5791.1,-5997,694.728,3092.95,1532.85)"><stop offset="0" style="stop-color:#25c1ff;stop-opacity:1"/><stop offset="0.33" style="stop-color:#9ec2ff;stop-opacity:1"/><stop offset="0.69" style="stop-color:#c2c2ff;stop-opacity:1"/><stop offset="0.88" style="stop-color:#a7c2ff;stop-opacity:1"/><stop offset="0.94" style="stop-color:#68c2ff;stop-opacity:1"/><stop offset="1" style="stop-color:#25c1ff;stop-opacity:1"/></linearGradient><linearGradient id="_Linear11" x1="0" y1="0" x2="1" y2="0" gradientUnits="userSpaceOnUse" gradientTransform="matrix(330.065,1078.21,-501.575,153.543,2490.5,2236.96)"><stop offset="0" style="stop-color:#11c1ff;stop-opacity:1"/><stop offset="1" style="stop-color:#d9c1ff;stop-opacity:1"/></linearGradient><linearGradient id="_Linear12" x1="0" y1="0" x2="1" y2="0" gradientUnits="userSpaceOnUse" gradientTransform="matrix(86.8396,3086.98,-3904.38,109.834,3638.63,2206.77)"><stop offset="0" style="stop-color:#17c1ff;stop-opacity:1"/><stop offset="0.65" style="stop-color:#27c1ff;stop-opacity:1"/><stop offset="1" style="stop-color:#87c1ff;stop-opacity:1"/></linearGradient><linearGradient id="_Linear13" x1="0" y1="0" x2="1" y2="0" gradientUnits="userSpaceOnUse" gradientTransform="matrix(1542.33,0,0,1385.31,3697.51,2491.01)"><stop offset="0" style="stop-color:#d9c1ff;stop-opacity:1"/><stop offset="1" style="stop-color:#9ac1ff;stop-opacity:1"/></linearGradient><linearGradient id="_Linear14" x1="0" y1="0" x2="1" y2="0" gradientUnits="userSpaceOnUse" gradientTransform="matrix(422.607,4422.31,-4463.48,426.542,3761.55,1215.28)"><stop offset="0" style="stop-color:#f9c1ff;stop-opacity:1"/><stop offset="0.28" style="stop-color:#0cbefb;stop-opacity:1"/><stop offset="0.47" style="stop-color:#7dc2ff;stop-opacity:1"/><stop offset="1" style="stop-color:#f0c1ff;stop-opacity:1"/></linearGradient><linearGradient id="_Linear15" x1="0" y1="0" x2="1" y2="0" gradientUnits="userSpaceOnUse" gradientTransform="matrix(691.539,2660.75,-3795.42,986.443,4114.05,4071.61)"><stop offset="0" style="stop-color:#5fc1ff;stop-opacity:1"/><stop offset="0.53" style="stop-color:#74c1ff;stop-opacity:1"/><stop offset="0.69" style="stop-color:#acc1ff;stop-opacity:1"/><stop offset="0.82" style="stop-color:#f0c1ff;stop-opacity:1"/><stop offset="1" style="stop-color:#87c1ff;stop-opacity:1"/></linearGradient></defs></svg>